{
    "asset" : {
        "generator" : "Khronos glTF Blender I/O v1.5.17",
        "version" : "2.0"
    },
    "scene" : 0,
    "scenes" : [
        {
            "extras" : {
                "glTF2ExportSettings" : {
                    "export_apply" : 1,
                    "export_cameras" : 1,
                    "export_extras" : 1,
                    "export_format" : "GLTF_EMBEDDED",
                    "export_lights" : 1,
                    "export_tangents" : 1
                }
            },
            "name" : "Scene",
            "nodes" : [
                1,
                2,
                3,
                4,
                5,
                6,
                7,
                8,
                9,
                10
            ]
        }
    ],
    "nodes" : [
        {
            "camera" : 0,
            "name" : "Camera_Orientation",
            "rotation" : [
                -0.7071067690849304,
                0,
                0,
                0.7071067690849304
            ]
        },
        {
            "children" : [
                0
            ],
            "name" : "Camera",
            "rotation" : [
                0.462168425321579,
                0.3293296694755554,
                -0.18998286128044128,
                0.8011546730995178
            ],
            "translation" : [
                484.0405578613281,
                329.4494934082031,
                467.08648681640625
            ]
        },
        {
            "mesh" : 0,
            "name" : "Factory",
            "translation" : [
                -157.05137634277344,
                5.000001907348633,
                162.025146484375
            ]
        },
        {
            "mesh" : 1,
            "name" : "Factory.001",
            "rotation" : [
                0,
                0.7071068286895752,
                0,
                0.7071068286895752
            ],
            "scale" : [
                1.399999976158142,
                1,
                1
            ],
            "translation" : [
                169.03277587890625,
                4.999999046325684,
                147.53555297851562
            ]
        },
        {
            "mesh" : 2,
            "name" : "Bucket",
            "translation" : [
                -172.41116333007812,
                10,
                -84.25961303710938
            ]
        },
        {
            "mesh" : 3,
            "name" : "Tower",
            "translation" : [
                -144.91201782226562,
                30,
                -151.2569122314453
            ]
        },
        {
            "mesh" : 4,
            "name" : "Bucket.001",
            "translation" : [
                150.65908813476562,
                9.999996185302734,
                -150.787841796875
            ]
        },
        {
            "mesh" : 5,
            "name" : "Building.001",
            "rotation" : [
                0,
                0.7071068286895752,
                0,
                -0.7071068286895752
            ],
            "translation" : [
                169.03277587890625,
                15.299999237060547,
                -73.66395568847656
            ]
        },
        {
            "mesh" : 6,
            "name" : "Building",
            "rotation" : [
                0,
                0.7071068286895752,
                0,
                -0.7071068286895752
            ],
            "translation" : [
                169.03277587890625,
                10.100000381469727,
                -73.66395568847656
            ]
        },
        {
            "mesh" : 7,
            "name" : "Building.004",
            "scale" : [
                1.5,
                1,
                1.2000000476837158
            ],
            "translation" : [
                53.76192855834961,
                15.299999237060547,
                -141.65086364746094
            ]
        },
        {
            "mesh" : 8,
            "name" : "Building.005",
            "scale" : [
                1.5,
                1,
                1.2000000476837158
            ],
            "translation" : [
                53.76192855834961,
                10.09999942779541,
                -141.65086364746094
            ]
        }
    ],
    "cameras" : [
        {
            "name" : "Camera",
            "perspective" : {
                "aspectRatio" : 1.7777777777777777,
                "yfov" : 0.39959652046304894,
                "zfar" : 1200,
                "znear" : 0.10000000149011612
            },
            "type" : "perspective"
        }
    ],
    "materials" : [
        {
            "doubleSided" : true,
            "emissiveFactor" : [
                0.4322620262419363,
                1,
                1
            ],
            "name" : "\u6750\u8d28.002",
            "pbrMetallicRoughness" : {
                "baseColorFactor" : [
                    0.800000011920929,
                    0.800000011920929,
                    0.800000011920929,
                    1
                ],
                "metallicFactor" : 0,
                "roughnessFactor" : 0.5
            }
        }
    ],
    "meshes" : [
        {
            "name" : "\u7acb\u65b9\u4f53",
            "primitives" : [
                {
                    "attributes" : {
                        "POSITION" : 0,
                        "NORMAL" : 1
                    },
                    "indices" : 2
                }
            ]
        },
        {
            "name" : "\u7acb\u65b9\u4f53.004",
            "primitives" : [
                {
                    "attributes" : {
                        "POSITION" : 3,
                        "NORMAL" : 4
                    },
                    "indices" : 5
                }
            ]
        },
        {
            "name" : "\u67f1\u4f53",
            "primitives" : [
                {
                    "attributes" : {
                        "POSITION" : 6,
                        "NORMAL" : 7,
                        "TEXCOORD_0" : 8
                    },
                    "indices" : 9
                }
            ]
        },
        {
            "name" : "\u67f1\u4f53.002",
            "primitives" : [
                {
                    "attributes" : {
                        "POSITION" : 10,
                        "NORMAL" : 11,
                        "TEXCOORD_0" : 12
                    },
                    "indices" : 13,
                    "material" : 0
                }
            ]
        },
        {
            "name" : "\u67f1\u4f53.003",
            "primitives" : [
                {
                    "attributes" : {
                        "POSITION" : 14,
                        "NORMAL" : 15,
                        "TEXCOORD_0" : 16
                    },
                    "indices" : 17
                }
            ]
        },
        {
            "name" : "\u7acb\u65b9\u4f53.007",
            "primitives" : [
                {
                    "attributes" : {
                        "POSITION" : 18,
                        "NORMAL" : 19,
                        "TEXCOORD_0" : 20
                    },
                    "indices" : 21
                }
            ]
        },
        {
            "name" : "\u7acb\u65b9\u4f53.006",
            "primitives" : [
                {
                    "attributes" : {
                        "POSITION" : 22,
                        "NORMAL" : 23,
                        "TEXCOORD_0" : 24
                    },
                    "indices" : 25
                }
            ]
        },
        {
            "name" : "\u7acb\u65b9\u4f53.011",
            "primitives" : [
                {
                    "attributes" : {
                        "POSITION" : 26,
                        "NORMAL" : 27,
                        "TEXCOORD_0" : 28
                    },
                    "indices" : 21
                }
            ]
        },
        {
            "name" : "\u7acb\u65b9\u4f53.012",
            "primitives" : [
                {
                    "attributes" : {
                        "POSITION" : 29,
                        "NORMAL" : 30,
                        "TEXCOORD_0" : 31
                    },
                    "indices" : 25
                }
            ]
        }
    ],
    "accessors" : [
        {
            "bufferView" : 0,
            "componentType" : 5126,
            "count" : 4384,
            "max" : [
                193,
                8,
                10
            ],
            "min" : [
                -25,
                -5,
                -154
            ],
            "type" : "VEC3"
        },
        {
            "bufferView" : 1,
            "componentType" : 5126,
            "count" : 4384,
            "type" : "VEC3"
        },
        {
            "bufferView" : 2,
            "componentType" : 5123,
            "count" : 8448,
            "type" : "SCALAR"
        },
        {
            "bufferView" : 3,
            "componentType" : 5126,
            "count" : 548,
            "max" : [
                81,
                8,
                10
            ],
            "min" : [
                -25,
                -5,
                -10
            ],
            "type" : "VEC3"
        },
        {
            "bufferView" : 4,
            "componentType" : 5126,
            "count" : 548,
            "type" : "VEC3"
        },
        {
            "bufferView" : 5,
            "componentType" : 5123,
            "count" : 1056,
            "type" : "SCALAR"
        },
        {
            "bufferView" : 6,
            "componentType" : 5126,
            "count" : 4608,
            "max" : [
                8,
                14,
                8
            ],
            "min" : [
                -8,
                -10,
                -80
            ],
            "type" : "VEC3"
        },
        {
            "bufferView" : 7,
            "componentType" : 5126,
            "count" : 4608,
            "type" : "VEC3"
        },
        {
            "bufferView" : 8,
            "componentType" : 5126,
            "count" : 4608,
            "type" : "VEC2"
        },
        {
            "bufferView" : 9,
            "componentType" : 5123,
            "count" : 9936,
            "type" : "SCALAR"
        },
        {
            "bufferView" : 10,
            "componentType" : 5126,
            "count" : 680,
            "max" : [
                23.956396102905273,
                50.000003814697266,
                4.160000324249268
            ],
            "min" : [
                -3.956395387649536,
                -30,
                -4.160000324249268
            ],
            "type" : "VEC3"
        },
        {
            "bufferView" : 11,
            "componentType" : 5126,
            "count" : 680,
            "type" : "VEC3"
        },
        {
            "bufferView" : 12,
            "componentType" : 5126,
            "count" : 680,
            "type" : "VEC2"
        },
        {
            "bufferView" : 13,
            "componentType" : 5123,
            "count" : 1056,
            "type" : "SCALAR"
        },
        {
            "bufferView" : 14,
            "componentType" : 5126,
            "count" : 2304,
            "max" : [
                32,
                14,
                8
            ],
            "min" : [
                -8,
                -10,
                -8
            ],
            "type" : "VEC3"
        },
        {
            "bufferView" : 15,
            "componentType" : 5126,
            "count" : 2304,
            "type" : "VEC3"
        },
        {
            "bufferView" : 16,
            "componentType" : 5126,
            "count" : 2304,
            "type" : "VEC2"
        },
        {
            "bufferView" : 17,
            "componentType" : 5123,
            "count" : 4968,
            "type" : "SCALAR"
        },
        {
            "bufferView" : 18,
            "componentType" : 5126,
            "count" : 4784,
            "max" : [
                51,
                15.699999809265137,
                16
            ],
            "min" : [
                -51,
                -5.099999904632568,
                -16
            ],
            "type" : "VEC3"
        },
        {
            "bufferView" : 19,
            "componentType" : 5126,
            "count" : 4784,
            "type" : "VEC3"
        },
        {
            "bufferView" : 20,
            "componentType" : 5126,
            "count" : 4784,
            "type" : "VEC2"
        },
        {
            "bufferView" : 21,
            "componentType" : 5123,
            "count" : 8736,
            "type" : "SCALAR"
        },
        {
            "bufferView" : 22,
            "componentType" : 5126,
            "count" : 240,
            "max" : [
                51,
                0.09999999403953552,
                16
            ],
            "min" : [
                -51,
                -10.100001335144043,
                -16
            ],
            "type" : "VEC3"
        },
        {
            "bufferView" : 23,
            "componentType" : 5126,
            "count" : 240,
            "type" : "VEC3"
        },
        {
            "bufferView" : 24,
            "componentType" : 5126,
            "count" : 240,
            "type" : "VEC2"
        },
        {
            "bufferView" : 25,
            "componentType" : 5123,
            "count" : 456,
            "type" : "SCALAR"
        },
        {
            "bufferView" : 26,
            "componentType" : 5126,
            "count" : 4784,
            "max" : [
                51,
                15.699999809265137,
                16
            ],
            "min" : [
                -51,
                -5.099999904632568,
                -16
            ],
            "type" : "VEC3"
        },
        {
            "bufferView" : 27,
            "componentType" : 5126,
            "count" : 4784,
            "type" : "VEC3"
        },
        {
            "bufferView" : 28,
            "componentType" : 5126,
            "count" : 4784,
            "type" : "VEC2"
        },
        {
            "bufferView" : 29,
            "componentType" : 5126,
            "count" : 240,
            "max" : [
                51,
                0.09999999403953552,
                16
            ],
            "min" : [
                -51,
                -10.100001335144043,
                -16
            ],
            "type" : "VEC3"
        },
        {
            "bufferView" : 30,
            "componentType" : 5126,
            "count" : 240,
            "type" : "VEC3"
        },
        {
            "bufferView" : 31,
            "componentType" : 5126,
            "count" : 240,
            "type" : "VEC2"
        }
    ],
    "bufferViews" : [
        {
            "buffer" : 0,
            "byteLength" : 52608,
            "byteOffset" : 0
        },
        {
            "buffer" : 0,
            "byteLength" : 52608,
            "byteOffset" : 52608
        },
        {
            "buffer" : 0,
            "byteLength" : 16896,
            "byteOffset" : 105216
        },
        {
            "buffer" : 0,
            "byteLength" : 6576,
            "byteOffset" : 122112
        },
        {
            "buffer" : 0,
            "byteLength" : 6576,
            "byteOffset" : 128688
        },
        {
            "buffer" : 0,
            "byteLength" : 2112,
            "byteOffset" : 135264
        },
        {
            "buffer" : 0,
            "byteLength" : 55296,
            "byteOffset" : 137376
        },
        {
            "buffer" : 0,
            "byteLength" : 55296,
            "byteOffset" : 192672
        },
        {
            "buffer" : 0,
            "byteLength" : 36864,
            "byteOffset" : 247968
        },
        {
            "buffer" : 0,
            "byteLength" : 19872,
            "byteOffset" : 284832
        },
        {
            "buffer" : 0,
            "byteLength" : 8160,
            "byteOffset" : 304704
        },
        {
            "buffer" : 0,
            "byteLength" : 8160,
            "byteOffset" : 312864
        },
        {
            "buffer" : 0,
            "byteLength" : 5440,
            "byteOffset" : 321024
        },
        {
            "buffer" : 0,
            "byteLength" : 2112,
            "byteOffset" : 326464
        },
        {
            "buffer" : 0,
            "byteLength" : 27648,
            "byteOffset" : 328576
        },
        {
            "buffer" : 0,
            "byteLength" : 27648,
            "byteOffset" : 356224
        },
        {
            "buffer" : 0,
            "byteLength" : 18432,
            "byteOffset" : 383872
        },
        {
            "buffer" : 0,
            "byteLength" : 9936,
            "byteOffset" : 402304
        },
        {
            "buffer" : 0,
            "byteLength" : 57408,
            "byteOffset" : 412240
        },
        {
            "buffer" : 0,
            "byteLength" : 57408,
            "byteOffset" : 469648
        },
        {
            "buffer" : 0,
            "byteLength" : 38272,
            "byteOffset" : 527056
        },
        {
            "buffer" : 0,
            "byteLength" : 17472,
            "byteOffset" : 565328
        },
        {
            "buffer" : 0,
            "byteLength" : 2880,
            "byteOffset" : 582800
        },
        {
            "buffer" : 0,
            "byteLength" : 2880,
            "byteOffset" : 585680
        },
        {
            "buffer" : 0,
            "byteLength" : 1920,
            "byteOffset" : 588560
        },
        {
            "buffer" : 0,
            "byteLength" : 912,
            "byteOffset" : 590480
        },
        {
            "buffer" : 0,
            "byteLength" : 57408,
            "byteOffset" : 591392
        },
        {
            "buffer" : 0,
            "byteLength" : 57408,
            "byteOffset" : 648800
        },
        {
            "buffer" : 0,
            "byteLength" : 38272,
            "byteOffset" : 706208
        },
        {
            "buffer" : 0,
            "byteLength" : 2880,
            "byteOffset" : 744480
        },
        {
            "buffer" : 0,
            "byteLength" : 2880,
            "byteOffset" : 747360
        },
        {
            "buffer" : 0,
            "byteLength" : 1920,
            "byteOffset" : 750240
        }
    ],
    "buffers" : [
        {
            "byteLength" : 752160,
            "uri" : "data:application/octet-stream;base64,"
        }
    ]
}
